<?xml version="1.0" standalone="no"?>
<!DOCTYPE svg PUBLIC "-//W3C//DTD SVG 20010904//EN"
 "http://www.w3.org/TR/2001/REC-SVG-20010904/DTD/svg10.dtd">
<svg version="1.0" xmlns="http://www.w3.org/2000/svg"
 width="500.000000pt" height="500.000000pt" viewBox="0 0 500.000000 500.000000"
 preserveAspectRatio="xMidYMid meet">

<g transform="translate(0.000000,500.000000) scale(0.100000,-0.100000)"
fill="#000000" stroke="none">
<path d="M1343 4643 c-16 -16 -75 -67 -133 -113 -253 -204 -503 -441 -711
-675 -186 -209 -259 -303 -259 -333 0 -40 146 -181 1020 -986 295 -271 649
-630 709 -719 29 -42 51 -81 49 -86 -2 -5 -73 -73 -158 -152 -215 -200 -530
-517 -539 -543 -15 -39 6 -70 77 -113 250 -153 539 -228 963 -252 248 -14
1455 -3 1576 14 152 21 262 83 307 174 36 69 46 117 61 289 62 672 26 1357
-105 2007 -53 261 -100 442 -120 460 -45 41 -54 34 -378 -287 -473 -468 -466
-467 -815 -134 -106 101 -333 329 -506 507 -674 694 -938 953 -984 964 -22 6
-32 1 -54 -22z m857 -942 c787 -791 796 -799 875 -837 68 -33 90 -39 145 -39
144 0 212 46 527 359 139 137 255 247 258 245 7 -8 62 -261 89 -414 40 -224
45 -260 38 -266 -4 -3 -60 -13 -125 -23 -126 -18 -280 -54 -337 -79 -35 -15
-34 -15 57 -16 108 -1 262 26 350 62 73 30 67 39 83 -118 6 -60 13 -125 16
-142 4 -30 3 -33 -21 -33 -39 0 -172 -29 -240 -52 -96 -33 -272 -128 -237
-128 33 0 226 55 353 101 77 28 142 49 144 47 6 -5 26 -320 21 -325 -2 -2 -30
-8 -63 -13 -33 -6 -108 -30 -166 -55 -59 -24 -185 -67 -280 -95 -94 -29 -174
-54 -177 -57 -3 -3 47 -3 110 0 169 9 278 42 440 134 42 23 90 46 108 49 l32
6 0 -130 0 -131 -37 -6 c-135 -21 -178 -31 -259 -60 -50 -18 -111 -44 -135
-59 l-44 -27 50 7 c90 11 238 46 328 76 49 16 92 27 95 24 7 -7 -14 -410 -29
-566 -21 -221 -58 -278 -209 -318 -87 -24 -1507 -30 -1733 -7 -204 20 -330 45
-482 96 -118 40 -255 104 -255 119 0 9 431 427 578 560 124 112 125 118 54
236 -68 113 -133 196 -234 297 l-89 88 30 62 c58 123 92 285 75 359 -7 31 -9
27 -39 -62 -17 -52 -44 -146 -60 -208 -16 -62 -32 -111 -36 -110 -4 2 -50 44
-102 95 l-95 92 35 81 c44 101 73 241 72 345 l0 80 -26 -65 c-14 -36 -45 -144
-69 -240 -25 -96 -46 -175 -47 -176 -1 -1 -50 44 -110 100 l-107 102 26 65
c14 35 39 89 55 121 67 132 97 275 74 349 -6 18 -11 9 -26 -49 -10 -40 -43
-129 -74 -199 -31 -70 -63 -157 -72 -195 l-15 -68 -113 105 -112 105 -6 181
c-3 100 -10 186 -16 192 -21 21 -52 -167 -43 -264 l5 -53 -87 79 c-47 43 -86
79 -86 80 0 2 7 22 15 45 18 52 19 154 1 195 l-13 30 -17 -54 c-9 -30 -17 -71
-17 -90 -1 -20 -4 -48 -8 -63 -6 -27 -13 -21 -198 158 -106 102 -193 190 -193
194 0 21 211 252 419 461 200 199 549 508 576 509 6 0 368 -359 805 -799z"/>
</g>
</svg>
